<svg width="279" height="54" viewBox="0 0 279 54" fill="none" xmlns="http://www.w3.org/2000/svg">
<path d="M83.9706 12.8788H88.236L100.171 40.5843H94.5363L91.9536 34.2449H79.94L77.4356 40.5843H71.918L83.9706 12.8788ZM90.2318 30.0187L85.9664 18.7486L81.6227 30.0187H90.2318Z" fill="white"/>
<path d="M105.598 12.8788H110.529V36.1233H124.482V40.5843H105.598V12.8788Z" fill="white"/>
<path d="M128.238 12.8788H133.169V36.1233H147.122V40.5843H128.238V12.8788Z" fill="white"/>
<path d="M150.761 12.8788H155.691V40.5843H150.761V12.8788Z" fill="white"/>
<path d="M173.079 12.8788H177.344L189.279 40.5843H183.644L181.062 34.2449H169.048L166.544 40.5843H161.026L173.079 12.8788ZM179.34 30.0187L175.074 18.7486L170.731 30.0187H179.34Z" fill="white"/>
<path d="M194.706 12.8788H201.241L214.663 33.4623H214.742V12.8788H219.672V40.5843H213.411L199.715 19.3356H199.637V40.5843H194.706V12.8788Z" fill="white"/>
<path d="M247.217 19.3747C246.2 18.279 245.209 17.5486 244.243 17.1833C243.304 16.8181 242.352 16.6355 241.387 16.6355C239.952 16.6355 238.647 16.8964 237.473 17.4181C236.326 17.9138 235.334 18.6182 234.499 19.5313C233.665 20.4183 233.012 21.4618 232.543 22.6618C232.099 23.8619 231.878 25.1532 231.878 26.5359C231.878 28.0229 232.099 29.3925 232.543 30.6448C233.012 31.897 233.665 32.9797 234.499 33.8927C235.334 34.8058 236.326 35.5232 237.473 36.045C238.647 36.5668 239.952 36.8276 241.387 36.8276C242.508 36.8276 243.591 36.5668 244.635 36.045C245.704 35.4971 246.696 34.6362 247.609 33.4623L251.678 36.3581C250.426 38.0799 248.9 39.3321 247.1 40.1147C245.3 40.8974 243.382 41.2887 241.348 41.2887C239.208 41.2887 237.239 40.9495 235.439 40.2713C233.665 39.5669 232.125 38.5886 230.821 37.3364C229.543 36.058 228.538 34.5319 227.808 32.7579C227.077 30.9839 226.712 29.0143 226.712 26.849C226.712 24.6315 227.077 22.6227 227.808 20.8226C228.538 18.9965 229.543 17.4442 230.821 16.1659C232.125 14.8876 233.665 13.9093 235.439 13.231C237.239 12.5266 239.208 12.1744 241.348 12.1744C243.226 12.1744 244.961 12.5136 246.552 13.1919C248.17 13.8441 249.67 14.9659 251.052 16.5572L247.217 19.3747Z" fill="white"/>
<path d="M257.336 12.8788H278.297V17.3399H262.266V24.1488H277.593V28.6099H262.266V36.1233H279.002V40.5843H257.336V12.8788Z" fill="white"/>
<path fill-rule="evenodd" clip-rule="evenodd" d="M24.5228 53.0457C39.171 53.0457 51.0457 41.171 51.0457 26.5228C51.0457 11.8747 39.171 0 24.5228 0C9.87468 0 -2 11.8747 -2 26.5228C-2 41.171 9.87468 53.0457 24.5228 53.0457ZM7.04297 39.332C7.04297 39.332 14.1258 32.2492 18.3453 25.0157C22.5649 17.7822 24.6746 9.04175 24.6746 9.04175C24.6746 9.04175 26.6337 17.4808 31.0039 25.0157C35.3742 32.5506 42.1556 39.332 42.1556 39.332C42.1556 39.332 34.1686 36.1674 24.6746 36.1674C15.1807 36.1674 7.04297 39.332 7.04297 39.332Z" fill="white"/>
</svg>
