<svg width="238" height="90" viewBox="0 0 238 90" fill="none" xmlns="http://www.w3.org/2000/svg">
<g clip-path="url(#clip0_8758_23325)">
<path d="M57.1942 29.934L55.8871 27.6386C55.7846 27.4587 55.6419 27.305 55.4702 27.1893C55.2984 27.0737 55.1023 26.9993 54.897 26.972C54.6918 26.9446 54.483 26.9651 54.287 27.0318C54.091 27.0984 53.913 27.2095 53.767 27.3563L50.7606 30.3601C50.5408 30.581 50.404 30.8711 50.3735 31.1812C50.3431 31.4913 50.4207 31.8025 50.5933 32.062C51.6895 33.7371 52.568 35.545 53.2075 37.4421C54.4024 40.9884 54.736 44.7682 54.1809 48.4689C53.6258 52.1697 52.1979 55.6853 50.0152 58.725C47.8325 61.7647 44.9577 64.2412 41.6284 65.9499C38.2991 67.6587 34.6109 68.5505 30.8687 68.5517C27.0164 68.5623 23.2212 67.6202 19.8209 65.8093L24.9056 60.722C28.0564 61.9137 31.4922 62.133 34.7689 61.3515C38.0456 60.57 41.0126 58.8236 43.2864 56.3382C45.5602 53.8527 47.0362 50.7424 47.5237 47.4092C48.0112 44.0761 47.4877 40.6733 46.0209 37.6408C45.9278 37.4466 45.7895 37.2776 45.6175 37.1479C45.4456 37.0183 45.245 36.9318 45.0327 36.8956C44.8204 36.8595 44.6025 36.8749 44.3974 36.9404C44.1922 37.0059 44.0058 37.1197 43.8537 37.2722L40.8107 40.2942C40.6485 40.4563 40.5304 40.6571 40.4677 40.8777C40.405 41.0982 40.3998 41.3312 40.4526 41.5543L40.714 42.6471C41.1639 44.5613 41.0451 46.5652 40.3723 48.4128C39.6995 50.2605 38.5019 51.8715 36.9265 53.0483C35.3512 54.225 33.4665 54.9163 31.5039 55.0372C29.5413 55.1581 27.586 54.7034 25.8781 53.7289L24.537 52.9603C24.2807 52.8127 23.9829 52.7539 23.6897 52.7931C23.3966 52.8324 23.1246 52.9674 22.9162 53.1773L10.4959 65.5949C10.3603 65.7305 10.2553 65.8935 10.1878 66.073C10.1202 66.2524 10.0919 66.4443 10.1045 66.6356C10.1171 66.8269 10.1705 67.0133 10.2609 67.1824C10.3514 67.3514 10.477 67.4992 10.6292 67.6158L12.4592 69.0196C17.7366 73.0865 24.2166 75.2827 30.8792 75.2624C36.1835 75.2557 41.3933 73.8577 45.9884 71.208C50.5836 68.5584 54.4034 64.7499 57.0665 60.1625C59.7297 55.5752 61.143 50.3696 61.1654 45.0653C61.1878 39.761 59.8185 34.5436 57.1942 29.934Z" fill="white"/>
<path d="M49.2921 20.9017C44.0153 16.8334 37.535 14.6362 30.872 14.6563C25.5651 14.6604 20.3522 16.0571 15.7542 18.7068C11.1561 21.3566 7.33395 25.1665 4.66951 29.7561C2.00506 34.3456 0.591672 39.554 0.570553 44.8609C0.549434 50.1677 1.92133 55.3872 4.54916 59.9978L5.85628 62.2905C5.95923 62.4702 6.10217 62.6238 6.27403 62.7394C6.44589 62.855 6.64206 62.9294 6.84733 62.957C7.0526 62.9845 7.26146 62.9645 7.45771 62.8983C7.65397 62.8321 7.83236 62.7217 7.97905 62.5755L10.9802 59.5743C11.1985 59.3531 11.3342 59.0636 11.3647 58.7543C11.3951 58.445 11.3185 58.1346 11.1475 57.8751C10.0503 56.2005 9.17175 54.3924 8.53328 52.4949C7.33843 48.9486 7.00477 45.1689 7.55986 41.4681C8.11496 37.7673 9.54288 34.2518 11.7256 31.2121C13.9083 28.1724 16.7831 25.6958 20.1124 23.9871C23.4417 22.2783 27.1299 21.3865 30.872 21.3853C34.7243 21.3766 38.5189 22.3214 41.9173 24.1355L36.8299 29.2203C34.2815 28.2544 31.5366 27.9217 28.8312 28.2509C26.1258 28.58 23.5408 29.5611 21.2983 31.1099C19.0558 32.6586 17.2228 34.7287 15.957 37.1422C14.6911 39.5558 14.0302 42.2405 14.031 44.9659C14.031 45.2456 14.1069 46.5214 14.1304 46.741C14.3365 48.6717 14.8733 50.5527 15.7172 52.3015C15.8107 52.4957 15.9493 52.6647 16.1215 52.7943C16.2937 52.9239 16.4944 53.0104 16.7069 53.0465C16.9194 53.0826 17.1374 53.0673 17.3427 53.0018C17.5481 52.9363 17.7347 52.8225 17.8871 52.6701L20.93 49.6245C21.0921 49.4628 21.2103 49.2625 21.2734 49.0425C21.3366 48.8225 21.3425 48.59 21.2908 48.367L21.0294 47.2717C20.579 45.3574 20.6973 43.3533 21.37 41.5054C22.0428 39.6575 23.2405 38.0463 24.8161 36.8696C26.3918 35.6929 28.2768 35.002 30.2396 34.8817C32.2025 34.7614 34.1577 35.217 35.8653 36.1925L37.2064 36.961C37.463 37.1074 37.7606 37.1654 38.0534 37.1262C38.3462 37.087 38.6181 36.9527 38.8272 36.7441L51.2449 24.3264C51.3807 24.1907 51.486 24.0277 51.5537 23.8481C51.6214 23.6685 51.6501 23.4766 51.6377 23.2851C51.6253 23.0935 51.5722 22.9069 51.4819 22.7375C51.3917 22.5681 51.2663 22.42 51.1142 22.3029L49.2921 20.9017Z" fill="white"/>
<path d="M100.342 53.3241C100.116 53.1401 99.8309 53.0428 99.5392 53.0495C99.2475 53.0562 98.9678 53.1665 98.7499 53.3607C96.8023 54.8717 94.5436 56.2703 91.2418 56.2703C85.1977 56.2703 80.2803 51.1804 80.2803 44.9192C80.2803 38.6581 85.1794 33.5237 91.1974 33.5237C93.8116 33.5237 96.635 34.6243 98.7107 36.4465C98.8277 36.5822 98.9732 36.6905 99.1367 36.7637C99.3003 36.8369 99.4779 36.8731 99.6571 36.87C99.8123 36.8576 99.963 36.8115 100.098 36.7347C100.234 36.6579 100.351 36.5524 100.441 36.4255L102.407 34.4021C102.532 34.281 102.631 34.1354 102.697 33.9743C102.763 33.8133 102.795 33.6403 102.792 33.4662C102.784 33.2893 102.74 33.1159 102.663 32.9567C102.586 32.7975 102.476 32.6559 102.342 32.5408C98.9094 29.5501 95.4612 28.2168 91.1503 28.2168C81.9481 28.2168 74.4609 35.7511 74.4609 45.0107C74.4644 49.4372 76.2234 53.6815 79.3522 56.8127C82.4809 59.9439 86.7239 61.7063 91.1503 61.7132C93.2297 61.7378 95.2934 61.3509 97.2227 60.5747C99.1519 59.7985 100.909 58.6484 102.392 57.1905C102.522 57.0578 102.624 56.9004 102.692 56.7275C102.76 56.5546 102.793 56.3699 102.789 56.184C102.785 56.0361 102.752 55.8905 102.691 55.7557C102.63 55.6209 102.542 55.4999 102.433 55.3998L100.342 53.3241Z" fill="white"/>
<path d="M114.65 28.6716H111.673C111.341 28.6828 111.025 28.8201 110.791 29.0557C110.556 29.2912 110.42 29.6073 110.41 29.9395V60.0034C110.419 60.3362 110.555 60.6529 110.79 60.889C111.024 61.1251 111.34 61.2628 111.673 61.274H114.65C114.983 61.2628 115.299 61.1251 115.534 60.889C115.768 60.6529 115.904 60.3362 115.913 60.0034V29.9395C115.903 29.6073 115.767 29.2912 115.533 29.0557C115.298 28.8201 114.983 28.6828 114.65 28.6716Z" fill="white"/>
<path d="M149.887 38.7914C149.887 33.2126 145.294 28.6716 139.647 28.6716H127.368C127.033 28.673 126.712 28.8072 126.475 29.0448C126.238 29.2825 126.105 29.6042 126.105 29.9395V60.0034C126.105 60.3392 126.237 60.6616 126.474 60.8998C126.711 61.138 127.032 61.2726 127.368 61.274H130.301C130.634 61.2628 130.95 61.1251 131.185 60.889C131.419 60.6529 131.555 60.3362 131.564 60.0034V48.8223H137.718L143.613 60.6256C143.72 60.819 143.878 60.98 144.069 61.0918C144.259 61.2035 144.477 61.2619 144.698 61.2609H148.217C148.439 61.2683 148.659 61.2168 148.855 61.1116C149.051 61.0065 149.216 60.8515 149.333 60.6622C149.444 60.4624 149.503 60.2374 149.503 60.0087C149.503 59.7799 149.444 59.555 149.333 59.3551L143.352 48.2079C147.393 46.4119 149.887 42.8409 149.887 38.7914ZM144.384 38.8829C144.384 41.7141 142.05 44.1114 139.287 44.1114H131.656V33.8871H139.276C142.045 33.8871 144.374 36.1745 144.374 38.8829H144.384Z" fill="white"/>
<path d="M181.936 53.3241C181.709 53.1401 181.425 53.0428 181.133 53.0495C180.841 53.0562 180.561 53.1665 180.344 53.3607C178.396 54.8717 176.137 56.2703 172.836 56.2703C166.791 56.2703 161.874 51.1804 161.874 44.9192C161.874 38.6581 166.77 33.5237 172.788 33.5237C175.403 33.5237 178.226 34.6243 180.304 36.4465C180.422 36.5835 180.569 36.6926 180.734 36.7659C180.899 36.8391 181.078 36.8747 181.259 36.87C181.414 36.8576 181.565 36.8115 181.7 36.7347C181.835 36.6579 181.953 36.5524 182.043 36.4255L184.009 34.4021C184.134 34.2809 184.232 34.1352 184.298 33.9741C184.363 33.813 184.395 33.6401 184.39 33.4662C184.384 33.2894 184.341 33.1158 184.264 32.9565C184.187 32.7972 184.078 32.6556 183.943 32.5408C180.519 29.5501 177.071 28.2168 172.76 28.2168C163.558 28.2168 156.07 35.7511 156.07 45.0107C156.074 49.4372 157.833 53.6815 160.962 56.8127C164.09 59.9439 168.333 61.7063 172.76 61.7132C174.839 61.7375 176.903 61.3504 178.832 60.5743C180.761 59.7981 182.518 58.6481 184.001 57.1905C184.131 57.0574 184.234 56.8996 184.302 56.7262C184.37 56.5529 184.403 56.3677 184.398 56.1814C184.395 56.0335 184.362 55.8878 184.301 55.753C184.24 55.6182 184.152 55.4972 184.043 55.3972L181.936 53.3241Z" fill="white"/>
<path d="M209.323 56.2258H197.507V29.9395C197.497 29.6073 197.361 29.2912 197.127 29.0557C196.892 28.8201 196.576 28.6828 196.244 28.6716H193.267C192.931 28.673 192.61 28.8072 192.373 29.0448C192.137 29.2825 192.004 29.6042 192.004 29.9395V60.0034C192.003 60.3392 192.136 60.6616 192.373 60.8998C192.609 61.138 192.931 61.2726 193.267 61.274H209.323C209.49 61.2736 209.655 61.2405 209.808 61.1764C209.962 61.1124 210.102 61.0187 210.219 60.9007C210.337 60.7828 210.43 60.6428 210.493 60.4888C210.557 60.3349 210.589 60.1699 210.589 60.0034V57.5068C210.59 57.3394 210.559 57.1734 210.496 57.0182C210.433 56.863 210.34 56.7218 210.223 56.6027C210.105 56.4836 209.965 56.389 209.811 56.3243C209.656 56.2596 209.491 56.2262 209.323 56.2258Z" fill="white"/>
<path d="M236.071 33.7592C236.406 33.7578 236.727 33.6236 236.964 33.386C237.2 33.1483 237.333 32.8266 237.333 32.4913V29.9476C237.333 29.6122 237.2 29.2905 236.964 29.0529C236.727 28.8153 236.406 28.6811 236.071 28.6797H218.032C217.697 28.6811 217.376 28.8153 217.139 29.0529C216.902 29.2905 216.77 29.6122 216.77 29.9476V60.0115C216.769 60.3473 216.901 60.6697 217.138 60.9079C217.375 61.1461 217.696 61.2806 218.032 61.282H236.071C236.406 61.2806 236.728 61.1461 236.965 60.9079C237.201 60.6697 237.334 60.3473 237.333 60.0115V57.5149C237.333 57.1795 237.2 56.8578 236.964 56.6202C236.727 56.3825 236.406 56.2483 236.071 56.247H222.215V47.2775H233.851C234.187 47.2768 234.509 47.1429 234.746 46.9052C234.983 46.6675 235.116 46.3454 235.116 46.0096V43.4685C235.107 43.1353 234.971 42.8182 234.736 42.5821C234.501 42.3459 234.184 42.2085 233.851 42.198H222.223V33.7592H236.071Z" fill="white"/>
</g>
<defs>
<clipPath id="clip0_8758_23325">
<rect width="236.636" height="88.0909" fill="white" transform="translate(0.457031 0.95459)"/>
</clipPath>
</defs>
</svg>
