<svg width="132" height="79" viewBox="0 0 132 79" fill="none" xmlns="http://www.w3.org/2000/svg">
<path fill-rule="evenodd" clip-rule="evenodd" d="M7.46091 69.0129L11.1626 78.8689H13.0569L16.832 68.7665H14.8213L12.1815 76.375L9.49982 68.6625L7.46091 69.0129ZM25.0384 68.7654V78.8226H31.0286V77.192H26.9463V74.4234H30.2401L29.9781 72.7623H26.9463V70.3983H30.8817V68.7654H25.0384ZM45.764 68.7654V75.3568L41.2457 68.7665H39.4225V78.8237H41.2152V71.9012L45.9538 78.8249H47.5578V68.7654H45.764ZM55.8806 68.7654V70.4412H58.8672V78.826H60.8056V70.4412H63.9684L63.6917 68.7665L55.8806 68.7654ZM80.1893 74.8878V68.7676H78.2498V74.8732C78.2498 76.4213 77.5359 77.3253 76.1081 77.3253C74.6939 77.3253 73.9958 76.3614 73.9958 74.8314V68.7676H72.071V74.9319C72.071 77.5558 73.6592 79 76.0945 79C78.5277 79 80.1882 77.5558 80.1882 74.8867L80.1893 74.8878ZM93.7443 74.6121C94.9823 74.1601 95.755 73.2425 95.755 71.7837C95.755 69.8287 94.3995 68.7665 92.155 68.7665H89.034V78.8237H90.961V74.9749H91.8353L94.4582 78.9266L96.426 78.5627L93.7443 74.6121ZM93.8595 71.8854C93.8595 72.934 93.1163 73.5013 91.9212 73.5013H90.9463V70.3101H92.0081C93.2191 70.3101 93.8607 70.8785 93.8607 71.8842L93.8595 71.8854ZM110.504 78.8249V77.192H106.424V74.4234H109.718L109.456 72.76H106.425V70.3983H110.361V68.7676H104.515V78.8249H110.504ZM125.02 75.9523C125.02 74.3929 124.263 73.6787 122.193 72.8335C120.795 72.2504 120.474 71.9441 120.474 71.3034C120.474 70.6898 120.897 70.2242 121.859 70.2242C122.645 70.2242 123.504 70.5293 124.233 71.0096L124.524 69.2603C123.796 68.8818 123.011 68.6501 121.872 68.6501C119.993 68.6501 118.622 69.6841 118.622 71.4639C118.622 73.0233 119.409 73.6629 121.362 74.4652C122.819 75.0912 123.169 75.3975 123.169 76.141C123.169 76.9434 122.557 77.366 121.667 77.366C120.661 77.366 119.613 76.9727 118.768 76.4767L118.474 78.2395C119.463 78.7079 120.544 78.9474 121.637 78.9401C123.578 78.9401 125.019 77.9197 125.019 75.9512L125.02 75.9523ZM1.24254 59.8856H21.365V58.8912C17.2251 58.8087 15.8165 58.2302 15.8165 55.7452V24.6018H30.8885V55.7452C30.8885 58.2313 29.3975 58.8076 25.7546 58.8924V59.8868H45.6296V58.8924C40.5781 58.8099 39.5841 58.2313 39.5841 55.7464V21.5349L28.3221 22.0321H15.8176V14.3298C15.8176 7.95198 16.8116 5.38344 18.5489 3.64433C20.04 2.23632 22.1116 1.4905 24.8452 1.4905C28.3221 1.4905 30.9721 3.23074 31.9673 5.13596C30.5576 6.13038 29.5646 7.86836 29.5646 9.52611C29.5646 13.0857 32.1311 14.496 34.7811 14.496C37.6807 14.496 39.6688 12.3421 39.6688 9.2775C39.6688 5.05121 35.4441 0 24.7616 0C19.2967 0 14.8247 1.40801 11.5952 4.63875C8.69555 7.62201 7.12204 11.9274 7.12204 18.9675V21.7835L0 23.6062V24.6843H7.12204V55.7441C7.12204 58.2302 5.96195 58.8065 1.24141 58.8912V59.8856H1.24254ZM63.3415 44.4789L67.0692 40.7521L76.2595 54.0864C78.2475 56.986 77.999 58.4776 73.6953 58.8924V59.8868H93.3207V58.8924C89.5106 58.4788 88.6826 57.8166 85.1222 52.7642L72.7001 35.2025L77.1733 30.7299C82.4711 25.5928 85.4532 23.6876 90.2562 22.6954V21.701H72.7001V22.6954C78.4949 23.7712 79.0755 26.1725 75.5151 29.9004L63.3415 42.4098V0.497211L48.021 0.992161V1.98658C53.818 2.1527 54.6471 3.39459 54.6471 6.21061V55.7441C54.6471 58.2302 53.5695 58.8065 48.7665 58.8912V59.8856H67.7322V58.8912C64.5016 58.8087 63.3415 58.2302 63.3415 55.7452V44.4789ZM109.476 56.5724C105.251 56.5724 103.349 53.7564 103.349 49.781C103.349 44.1478 105.751 41.7465 116.764 39.5915V51.9348C115.106 54.2547 112.456 56.5735 109.475 56.5735L109.476 56.5724ZM104.672 60.384C109.806 60.384 113.7 57.4855 116.845 53.8411H117.176C117.673 58.3138 119.413 60.219 124.05 60.219C126.948 60.219 129.101 59.2246 132 57.4019L131.669 56.5747C126.866 58.5635 125.375 56.8233 125.375 52.7665V33.4657C125.375 24.934 120.405 21.2897 111.05 21.2897C101.692 21.2897 95.6477 24.8515 95.6477 29.7389C95.6477 32.4735 97.551 34.6262 100.451 34.6262C103.681 34.6262 105.421 32.6374 105.421 29.7389C105.421 28.0811 104.591 26.5906 103.184 25.264C104.673 23.7746 107.239 22.8638 110.056 22.8638C114.942 22.8638 116.765 25.8448 116.765 32.0577V38.0208C114.859 38.9305 105.17 39.4277 99.0421 42.8234C95.5652 44.7286 94.0742 47.9594 94.0742 51.1901C94.0742 55.8289 97.3025 60.384 104.673 60.384" fill="white"/>
</svg>
