<svg width="187" height="58" viewBox="0 0 187 58" fill="none" xmlns="http://www.w3.org/2000/svg">
<path d="M0 43.761C0 36.3839 5.78409 30.5217 12.8179 30.5217C17.1566 30.5217 20.9683 32.6953 23.006 36.2522L21.0349 37.4378C19.326 34.6055 16.2357 32.8271 12.8179 32.8271C7.23078 32.8271 2.56332 37.6354 2.56332 43.761C2.56332 49.9525 7.16424 54.7608 12.8179 54.7608C16.2357 54.7608 19.326 53.0482 21.0349 50.2159L23.006 51.4016C20.9683 54.9584 17.1566 57.1321 12.8179 57.1321C5.78409 57.0662 0 51.204 0 43.761Z" fill="white"/>
<path d="M30.3675 33.6177C31.025 31.51 32.5369 30.522 34.5093 30.522C36.4817 30.522 37.9936 31.51 38.6497 33.6177L45.8805 56.6712H43.3837L41.2144 49.4917L27.936 49.5575L25.6348 56.6712H23.1367L30.3675 33.6177ZM28.5269 47.1864H40.4251L36.4817 34.3423C36.1529 33.2884 35.4955 32.7615 34.5093 32.7615C33.4579 32.7615 32.8656 33.2884 32.5369 34.3423L28.5269 47.1864Z" fill="white"/>
<path d="M49.5625 56.6709V30.9169H56.9916C63.5649 30.9169 68.0341 33.815 68.0341 39.8089C68.0341 46.0004 63.3666 48.7668 57.0568 48.7668H51.9954V56.7367H49.5625V56.6709ZM51.9954 33.2222V46.3956H56.9916C61.7243 46.3956 65.4707 44.4855 65.4707 39.743C65.4707 35.1982 61.9865 33.1564 56.9916 33.1564H51.9954V33.2222Z" fill="white"/>
<path d="M73.886 30.9169V56.6709H71.4531V30.9169H73.886Z" fill="white"/>
<path d="M95.1818 33.2222H86.9661V56.6709H84.5333V33.2222H76.3828V30.9169H95.1818V33.2222Z" fill="white"/>
<path d="M100.77 33.6177C101.427 31.51 102.939 30.522 104.91 30.522C106.883 30.522 108.395 31.51 109.052 33.6177L116.283 56.6712H113.72L111.55 49.4916L98.2717 49.5575L96.0372 56.737H93.5391L100.77 33.6177ZM98.9292 47.1864H110.826L106.883 34.3423C106.554 33.2884 105.896 32.7615 104.91 32.7615C103.859 32.7615 103.268 33.2884 102.939 34.3423L98.9292 47.1864Z" fill="white"/>
<path d="M122.392 54.3655H135.803V56.6709H122.392C120.552 56.6709 119.961 55.7487 119.961 54.2338V30.9169H122.392V54.3655Z" fill="white"/>
<path d="M186.497 36.83C186.002 38.4852 185.339 40.0577 184.597 41.4648C184.349 41.9613 184.102 42.3752 183.853 42.8717C182.532 44.7753 180.219 46.0995 177.74 46.0995C175.511 46.0995 173.446 45.1063 172.125 43.5338C172.041 43.451 171.959 43.3682 171.877 43.2856C170.472 41.713 168.491 40.7198 166.26 40.7198C165.681 40.7198 165.186 40.8026 164.691 40.8853V56.3623C163.039 56.6933 161.221 56.8588 159.487 56.8588C143.794 56.8588 131.156 44.1133 131.156 28.4707C131.156 12.8284 143.711 0 159.405 0C162.378 0 165.268 0.496583 167.994 1.32422L159.569 9.76614L164.691 14.8975L182.697 32.94L183.44 33.685L186.497 36.83Z" fill="url(#paint0_linear_8758_23338)"/>
<path d="M0.929688 21.2615L3.03834 20.2051C4.15858 22.7802 6.72851 24.1668 10.0233 24.1668C13.5817 24.1668 16.2833 22.318 16.2833 19.1486C16.2833 15.7151 13.1863 15.0548 9.82561 14.3285C5.93776 13.4702 1.52275 12.3476 1.52275 7.19747C1.52275 3.16965 5.2788 0.0662842 9.75971 0.0662842C13.4499 0.0662842 16.8106 1.84907 18.1944 5.21654L16.1516 6.27302C14.9654 3.7639 12.725 2.3773 9.69382 2.3773C6.66262 2.3773 4.02679 4.35816 4.02679 7.06538C4.02679 10.4989 7.18978 11.1592 10.6164 11.8855C14.5042 12.7439 18.8533 13.8663 18.8533 19.0827C18.7215 23.6386 14.8995 26.5439 10.0233 26.5439C5.93776 26.5439 2.3794 24.695 0.929688 21.2615Z" fill="white"/>
<path d="M23.1367 26.2794V0.462158H25.5748V12.2813H40.8626V0.462158H43.3008V26.2794H40.8626V14.5263H25.5748V26.2134H23.1367V26.2794Z" fill="white"/>
<path d="M52.0631 0.462158V26.2794H49.625V0.462158H52.0631Z" fill="white"/>
<path d="M56.4805 26.2795L60.1707 2.83925C60.5001 0.990435 61.8179 0 63.4654 0C64.9151 0 66.233 0.726323 66.6942 2.37704L72.2296 21.9876C72.3612 22.5818 72.493 22.7799 72.8226 22.7799C73.152 22.7799 73.2838 22.5158 73.4156 21.9876L78.9508 2.44307C79.4122 0.792351 80.7301 0 82.1798 0C83.7613 0 85.0792 0.990435 85.4086 2.90528L88.7694 26.1474H86.3312L83.1682 3.56556C83.0365 2.70719 82.8387 2.17895 82.1139 2.17895C81.5868 2.17895 81.1913 2.64116 80.9936 3.4335L75.2607 23.1101C74.9312 24.2986 73.9428 24.9589 72.8226 24.9589C71.7682 24.9589 70.7139 24.3647 70.3844 23.1762L64.6515 3.36747C64.388 2.57514 64.1243 2.17895 63.5972 2.17895C63.0699 2.17895 62.6087 2.64116 62.4769 3.56556L58.9844 26.2134H56.4805V26.2795Z" fill="white"/>
<path d="M97.9281 3.16965C98.5872 1.05672 100.103 0.0662842 102.08 0.0662842C103.991 0.0662842 105.572 1.05672 106.231 3.16965L113.48 26.2797H110.975L108.801 19.0827L95.49 19.1486L93.1837 26.2797H90.6797L97.9281 3.16965ZM96.0831 16.7716H108.01L104.056 3.89597C103.727 2.83951 103.068 2.31127 102.08 2.31127C101.025 2.31127 100.432 2.83951 100.103 3.89597L96.0831 16.7716Z" fill="white"/>
<defs>
<linearGradient id="paint0_linear_8758_23338" x1="177.792" y1="2.09e-06" x2="144.345" y2="61.0396" gradientUnits="userSpaceOnUse">
<stop stop-color="white" stop-opacity="0.3"/>
<stop offset="1" stop-color="white"/>
</linearGradient>
</defs>
</svg>
