<svg width="53" height="32" viewBox="0 0 53 32" fill="none" xmlns="http://www.w3.org/2000/svg">
<path d="M37.968 7.22798L40.9274 19.5828C41.2518 20.937 40.2253 22.2384 38.8328 22.2384H12.1425C9.59998 22.2384 7.32802 20.6507 6.45401 18.2631L6.21159 17.6009C6.08297 17.2496 6.34306 16.8773 6.71726 16.8773H24.1481C24.3545 16.8773 24.5218 16.71 24.5218 16.5036C24.5218 14.9555 23.2668 13.7004 21.7187 13.7004H9.01701C6.47448 13.7004 4.20254 12.1127 3.32852 9.72514L3.11033 9.1291C2.9817 8.77777 3.24181 8.40559 3.61597 8.40559H20.177C20.3833 8.40559 20.5507 8.23824 20.5507 8.0318C20.5507 6.48367 19.2957 5.22866 17.7475 5.22866H5.91572C3.37322 5.22866 1.10126 3.64097 0.227246 1.2534L0.0332865 0.72357C-0.0953355 0.37218 0.164768 0 0.538929 0H28.8042C33.1628 0 36.9527 2.98926 37.968 7.22798Z" fill="url(#paint0_linear_9750_3651)"/>
<path d="M48.4482 10.9056L52.5984 28.73C52.9131 30.0807 51.8876 31.3722 50.5008 31.3722H22.6625C20.0259 31.3722 17.6921 29.6667 16.8911 27.1547L16.6091 26.27C16.443 25.749 16.8317 25.2169 17.3786 25.2169H42.7988C44.1934 25.2169 45.2203 23.9118 44.8921 22.5563L41.1791 7.21945C41.056 6.71113 41.4411 6.22168 41.9641 6.22168H42.5483C45.3646 6.22168 47.8095 8.16262 48.4482 10.9056Z" fill="url(#paint1_linear_9750_3651)"/>
<defs>
<linearGradient id="paint0_linear_9750_3651" x1="20.4845" y1="0" x2="20.4845" y2="22.2384" gradientUnits="userSpaceOnUse">
<stop stop-color="#FFC803"/>
<stop offset="1" stop-color="#FFA903"/>
</linearGradient>
<linearGradient id="paint1_linear_9750_3651" x1="34.5621" y1="6.22168" x2="34.5621" y2="31.3722" gradientUnits="userSpaceOnUse">
<stop stop-color="#FF7421"/>
<stop offset="1" stop-color="#EC5901"/>
</linearGradient>
</defs>
</svg>
