<svg width="33" height="34" viewBox="0 0 33 34" fill="none" xmlns="http://www.w3.org/2000/svg">
<path d="M16.125 1.875L16.9115 9.45159C17.2821 13.0214 20.1036 15.8429 23.6734 16.2135L31.25 17L23.6734 17.7865C20.1036 18.1571 17.2821 20.9786 16.9115 24.5484L16.125 32.125L15.3385 24.5484C14.9679 20.9786 12.1464 18.1571 8.57658 17.7865L1 17L8.57659 16.2135C12.1464 15.8429 14.9679 13.0214 15.3385 9.45158L16.125 1.875Z" fill="#FF8135"/>
<path d="M16.125 1.875L16.9115 9.45159C17.2821 13.0214 20.1036 15.8429 23.6734 16.2135L31.25 17L23.6734 17.7865C20.1036 18.1571 17.2821 20.9786 16.9115 24.5484L16.125 32.125L15.3385 24.5484C14.9679 20.9786 12.1464 18.1571 8.57658 17.7865L1 17L8.57659 16.2135C12.1464 15.8429 14.9679 13.0214 15.3385 9.45158L16.125 1.875Z" stroke="#FF8135" stroke-width="1.99624" stroke-linejoin="round"/>
</svg>
