<svg width="120" height="41" viewBox="0 0 120 41" fill="none" xmlns="http://www.w3.org/2000/svg">
<path fill-rule="evenodd" clip-rule="evenodd" d="M16.5643 1.08291C12.9396 1.52841 8.95039 3.39138 5.54843 6.26685C4.85994 6.83384 3.42221 8.23107 3.42221 8.31207C3.42221 8.35257 4.1107 9.08156 4.96119 9.93205L6.50017 11.4913L5.85218 12.2203C3.46271 14.9135 1.84273 17.6472 0.870738 20.5429C0.263246 22.3654 0 23.8639 0 25.5446C0 27.0633 0.202497 28.2986 0.668241 29.4933L0.850489 29.9793L5.36618 34.495C9.13264 38.2615 9.98313 39.0714 10.4489 39.3752C11.4209 40.0232 12.5548 40.4687 13.8103 40.7319C14.6406 40.9142 16.5643 40.9749 17.4755 40.8534C21.08 40.4079 24.8059 38.7069 28.0662 35.9935C28.9166 35.2847 30.3544 33.928 30.3544 33.847C30.3544 33.8065 29.6456 33.0775 28.7951 32.2068L27.2359 30.6273L27.7219 30.1211C28.9166 28.8656 30.3746 26.8608 31.2251 25.2814C32.4401 23.0741 33.2298 20.6847 33.4931 18.4977C33.5943 17.546 33.5336 15.521 33.3716 14.7515C33.0881 13.4555 32.6426 12.4025 31.9744 11.39C31.6301 10.8635 30.9416 10.1548 27.1347 6.3276L22.6797 1.87265L22.214 1.6904C21.5862 1.42716 20.2902 1.12341 19.5005 1.04241C18.7108 0.961413 17.4755 0.981662 16.5643 1.08291ZM20.3915 2.27765C20.7155 2.35865 21.242 2.48015 21.5255 2.58139C22.052 2.76364 22.0722 2.76364 22.9025 3.59388C23.6315 4.32287 23.7327 4.42412 23.5505 4.40387C22.5785 4.22162 21.0192 4.18112 19.8043 4.34312C15.9163 4.82912 11.9069 6.79334 8.2214 10.0333C7.8569 10.3573 7.53291 10.6408 7.47216 10.6813C7.41141 10.7218 7.08741 10.4585 6.13567 9.50681L4.88019 8.25132L5.69018 7.54258C9.07189 4.58612 12.7978 2.72314 16.4428 2.19665C17.4148 2.0549 19.5815 2.11565 20.3915 2.27765ZM25.6969 8.71706C27.4789 8.98031 29.0381 9.7498 30.1924 10.904C31.3264 12.038 32.0554 13.496 32.3996 15.3185C32.5413 16.1285 32.5413 17.951 32.3996 18.9027C31.9339 21.8389 30.5771 24.8561 28.4711 27.6101C27.9852 28.2581 26.8309 29.6148 26.6487 29.7566C26.5474 29.8376 26.4259 29.7363 25.3729 28.6833C24.7249 28.0353 24.1984 27.4886 24.1984 27.4683C24.1984 27.4481 24.3807 27.2253 24.6034 26.9823C28.2686 22.9324 29.9899 17.87 28.7749 14.7312C28.2889 13.5163 27.2764 12.605 25.9602 12.2C25.2919 11.9975 24.1174 11.8963 23.2467 11.9975C21.9102 12.119 20.27 12.6455 18.6905 13.415C17.111 14.1845 15.6733 15.1565 14.2761 16.412L13.6483 16.9587L12.4536 15.764L11.2589 14.5692L11.7651 14.1035C14.8633 11.2078 18.974 9.14231 22.4975 8.67657C23.2062 8.61582 25.0287 8.61582 25.6969 8.71706ZM8.95039 15.7032C8.5049 16.2095 7.9379 16.9182 7.6544 17.2827C4.29295 21.7579 2.75397 26.6178 3.38171 30.8095L3.42221 31.0728L2.59197 30.2628C1.80223 29.4933 1.76173 29.4326 1.59973 28.9466C0.02025 24.4106 2.00472 18.1534 6.68242 12.9088L7.22916 12.3013L8.48464 13.5568L9.74013 14.8122L8.95039 15.7032ZM24.7654 13.1113L24.9274 13.1518L24.8869 14.0022C24.8464 15.0147 24.7047 15.845 24.5022 16.5537C23.8542 18.6799 22.6595 20.8062 20.918 22.8109L20.2497 23.5804L18.974 22.3046L17.6983 21.0289L18.2855 20.3809C19.541 19.0039 20.6952 17.4042 21.404 16.0475C21.7887 15.3185 22.295 14.0833 22.4367 13.5163C22.5177 13.172 22.5177 13.172 22.8215 13.1315C22.9835 13.1113 23.1657 13.091 23.2265 13.0708C23.3885 13.0708 24.6237 13.0708 24.7654 13.1113ZM21.1407 14.0022C20.8572 14.792 20.2295 16.007 19.622 16.9182C18.9538 17.9307 18.488 18.5382 17.5565 19.5912L16.9085 20.3404L15.6328 19.0647L14.3571 17.789L14.7823 17.4042C16.0985 16.2297 17.6375 15.1767 19.055 14.4477C19.8245 14.063 21.08 13.5568 21.2622 13.5365C21.2825 13.5365 21.242 13.739 21.1407 14.0022ZM40.54 14.7717C40.4792 14.8325 40.459 16.5132 40.459 22.6691C40.459 30.1615 40.459 30.4855 40.5805 30.5868C40.6817 30.688 41.0057 30.688 43.7395 30.688C45.3999 30.688 47.2022 30.6475 47.7287 30.6273C49.8549 30.4855 51.4951 29.7971 52.7506 28.5416C53.7428 27.5493 54.3706 26.1723 54.6946 24.3499C54.8363 23.4589 54.8363 21.5959 54.6946 20.7252C54.1681 17.789 52.4873 15.8855 49.7941 15.116C48.4779 14.7515 48.3766 14.7312 44.3672 14.711C41.3905 14.711 40.6007 14.711 40.54 14.7717ZM114.269 15.035C114.209 15.0957 114.188 15.602 114.188 16.898V18.6799H113.419C112.913 18.6799 112.629 18.7002 112.568 18.7609C112.467 18.8622 112.467 20.9682 112.568 21.0897C112.629 21.1504 112.913 21.1707 113.419 21.1707H114.188L114.209 24.7751C114.229 28.2986 114.229 28.3998 114.371 28.8048C114.755 29.9186 115.545 30.526 116.821 30.688C117.692 30.7893 118.927 30.7488 119.777 30.5868L119.96 30.5463L119.939 29.0681L119.919 27.5898L119.109 27.5493C118.238 27.5088 118.097 27.4683 117.995 27.2861C117.955 27.2051 117.935 25.9901 117.935 24.1879V21.2112L118.967 21.1909L120 21.1707V19.9354V18.7002L118.967 18.6799L117.935 18.6597V16.9182C117.935 15.845 117.914 15.1362 117.874 15.0552C117.813 14.9337 117.712 14.9337 116.092 14.9337C114.816 14.9742 114.33 14.9945 114.269 15.035ZM47.9919 18.4572C49.2271 18.7812 50.0371 19.6519 50.3611 20.9277C50.6041 21.8997 50.6041 23.5196 50.3409 24.5321C50.0776 25.5244 49.4701 26.3141 48.6601 26.6988C47.9514 27.0431 47.5262 27.1038 46.0682 27.1443L44.7519 27.1848V22.7299V18.2749L46.1694 18.3154C47.2022 18.3357 47.7084 18.3762 47.9919 18.4572ZM60.3645 18.5382C58.3395 18.9027 56.7803 20.2392 56.0918 22.1831C55.1806 24.7346 55.6261 27.6506 57.165 29.2908C57.975 30.1413 58.7445 30.5868 59.919 30.8905C62.1667 31.4575 64.5765 30.8703 66.1762 29.3718C66.5609 29.0276 67.5532 27.7721 67.5532 27.6506C67.5532 27.5088 67.2697 27.3266 66.1154 26.7393C65.4067 26.3748 64.8194 26.0711 64.7992 26.0711C64.7789 26.0711 64.6574 26.2533 64.5359 26.4761C64.2525 27.0228 63.6652 27.6303 63.24 27.8531C61.9642 28.4808 60.4657 28.1163 59.8178 27.0228C59.6355 26.6988 59.4533 26.1318 59.4533 25.8281V25.6054H63.5032C66.5609 25.6054 67.5532 25.5851 67.6139 25.5244C67.7152 25.4231 67.7152 24.6131 67.5937 23.8031C67.2697 21.6364 66.3584 20.0772 64.9004 19.2064C64.4145 18.9229 63.483 18.5989 62.8755 18.4977C62.268 18.3964 60.972 18.4167 60.3645 18.5382ZM73.6686 18.4572C73.1016 18.5382 72.6358 18.6394 72.2713 18.7609C70.2261 19.4089 68.8694 21.0897 68.4442 23.4791C68.2822 24.3904 68.3429 25.8483 68.5657 26.7191C68.8694 27.8936 69.3149 28.6631 70.1249 29.4326C70.8336 30.1008 71.6639 30.5665 72.7776 30.8703C73.1016 30.9715 73.4256 30.9918 74.2558 30.9918C75.2076 30.9918 75.3493 30.9715 75.8758 30.8095C76.9288 30.4855 77.7388 29.9996 78.4678 29.2301C78.9538 28.7238 79.5005 27.9746 79.5005 27.8126C79.5005 27.7518 79.3993 27.6506 79.298 27.5696C78.8728 27.3063 76.9085 26.3343 76.8073 26.3343C76.7466 26.3343 76.6453 26.4761 76.5441 26.6786C76.301 27.2051 75.9771 27.5493 75.4708 27.7923C75.0861 27.9746 74.9646 28.0151 74.5393 27.9948C73.9723 27.9948 73.6078 27.8531 73.1421 27.4481C71.9271 26.3748 71.8461 23.3981 73.0003 22.0414C73.7293 21.1909 75.0861 21.1909 75.9568 22.0212C76.0986 22.1629 76.3011 22.4261 76.4023 22.6084C76.5036 22.7906 76.6251 22.9526 76.6858 22.9526C76.8275 22.9931 79.3183 21.5554 79.3588 21.4137C79.379 21.2922 79.1158 20.8872 78.731 20.4012C78.1033 19.6317 76.868 18.8824 75.7948 18.6394C75.2481 18.4977 74.0736 18.4167 73.6686 18.4572ZM106.149 18.5989C105.481 18.7204 104.873 18.9634 104.387 19.3279L104.003 19.6114L103.982 19.2064L103.962 18.8014L102.403 18.7812C101.026 18.7609 100.823 18.7812 100.722 18.8824C100.601 18.9837 100.601 19.2874 100.601 26.7798C100.601 32.7535 100.621 34.576 100.682 34.6367C100.803 34.7582 104.205 34.7582 104.306 34.6367C104.367 34.576 104.387 33.9685 104.387 32.3283V30.1008L105.015 30.4248C105.866 30.85 106.392 30.9513 107.384 30.9108C108.539 30.85 109.227 30.6273 109.976 30.0603C111.029 29.2706 111.718 28.0556 112.103 26.3748C112.305 25.4839 112.305 23.9246 112.103 22.9729C111.839 21.7174 111.414 20.8669 110.645 20.0569C109.511 18.8014 107.85 18.2952 106.149 18.5989ZM14.8228 19.7937C15.9163 20.8872 15.977 20.9682 15.8961 21.0897C15.8353 21.1504 15.5721 21.4542 15.2886 21.7782C14.1546 23.0741 13.1016 24.6536 12.3928 26.1116C11.8866 27.1443 11.5829 27.9948 11.2791 29.1491C10.8944 30.6678 10.8944 32.3485 11.3196 33.523C12.1094 35.7505 14.1951 36.8035 17.111 36.4592C19.9258 36.115 23.1657 34.495 25.9399 32.0448L26.5272 31.5183L27.7219 32.713L28.9166 33.9077L28.4104 34.3735C25.8184 36.7832 22.3557 38.7474 19.3588 39.4764C18.1438 39.7802 17.2933 39.8814 16.139 39.8814C14.6001 39.8814 13.4661 39.6789 12.2713 39.1524C10.7324 38.4842 9.31488 37.168 8.58589 35.71C7.67465 33.9078 7.41141 31.6803 7.8164 29.2706C8.3834 25.9091 10.2666 22.3046 13.0408 19.2064C13.3243 18.8824 13.5876 18.6192 13.6078 18.6192C13.6281 18.6192 14.1748 19.1457 14.8228 19.7937ZM86.8714 18.7002C86.0817 18.8217 85.0894 19.1862 84.4415 19.6114L84.239 19.7532V19.3279C84.239 19.0849 84.1985 18.8824 84.158 18.8217C84.0972 18.7609 83.6315 18.7407 82.4367 18.7407C80.9382 18.7407 80.7762 18.7407 80.6952 18.8622C80.594 18.9634 80.594 19.4697 80.594 24.7346C80.594 30.2223 80.594 30.4855 80.7155 30.5868C80.8167 30.688 81.0395 30.688 82.4975 30.688C83.7935 30.688 84.1782 30.6678 84.239 30.607C84.2795 30.5463 84.32 29.3516 84.32 26.9013C84.3402 23.4994 84.3402 23.2564 84.4617 23.0336C84.7047 22.5476 85.13 22.3451 86.3652 22.1427C86.8309 22.0617 87.2967 21.9806 87.3979 21.9604L87.5802 21.9199V20.3404C87.5802 18.7609 87.5599 18.5787 87.3574 18.6192C87.2764 18.6394 87.0739 18.6597 86.8714 18.7002ZM88.5319 18.8419C88.4914 18.9027 88.4712 19.0039 88.4914 19.1052C88.5117 19.1862 89.0584 20.9682 89.7064 23.0336C92.2984 31.3765 92.1566 30.8905 91.9743 31.2145C91.8124 31.5385 91.5289 31.5993 90.5164 31.5993C89.8886 31.5993 89.5646 31.6195 89.5241 31.6803C89.4634 31.741 89.4431 32.146 89.4431 33.1383C89.4431 34.1305 89.4634 34.5355 89.5241 34.5962C89.6254 34.6975 92.1971 34.6975 92.8653 34.6165C93.9791 34.4545 94.8903 33.6648 95.4168 32.4093C95.5383 32.146 96.5711 29.0073 97.7253 25.4434C99.487 20.0569 99.8313 18.9432 99.7503 18.8622C99.6895 18.7812 99.3858 18.7609 97.786 18.7609H95.9028L95.8421 19.0444C95.8016 19.2064 95.4168 20.8872 94.9713 22.8109C94.5258 24.7346 94.1613 26.3343 94.1208 26.3546C94.1006 26.3748 93.6753 24.6739 93.2096 22.5881L92.3389 18.7609H90.4556C88.8964 18.7609 88.5926 18.7609 88.5319 18.8419ZM62.673 21.3732C63.2805 21.6567 63.6855 22.2034 63.807 22.8716L63.8475 23.1146H61.6807H59.514L59.5545 22.9121C59.6355 22.5476 59.9798 21.9604 60.2633 21.7174C60.7492 21.2922 61.1745 21.1504 61.8427 21.1909C62.1667 21.2112 62.4097 21.2719 62.673 21.3732ZM107.364 21.4744C107.931 21.7782 108.356 22.4059 108.559 23.2564C108.701 23.8841 108.701 25.3826 108.539 26.0103C108.397 26.5571 108.113 27.1241 107.81 27.5088C107.324 28.0961 106.372 28.2581 105.602 27.8733C104.711 27.4278 104.286 26.4356 104.286 24.7751C104.286 23.2361 104.691 22.1426 105.44 21.5959C106.028 21.1909 106.736 21.1504 107.364 21.4744ZM18.7918 24.7549C17.1313 26.3141 15.0051 27.7113 13.2433 28.4201C12.8788 28.5618 12.5548 28.6833 12.5346 28.6833C12.5143 28.6833 12.5953 28.4606 12.6966 28.1771C13.4661 26.0508 14.8026 23.8841 16.4023 22.1629L16.787 21.7579L18.0628 23.0134L19.3385 24.2689L18.7918 24.7549ZM21.3432 26.3343L22.5785 27.5696L22.1937 27.9341C20.1687 29.8376 17.0503 31.5588 14.8431 32.0245C14.2963 32.146 13.0813 32.2675 12.4941 32.2675H12.1093V31.336C12.1093 30.8298 12.1296 30.283 12.1498 30.1615L12.1903 29.9186L12.9801 29.6553C14.9848 29.0073 17.5363 27.4076 19.4195 25.6256C19.7233 25.3421 20.0068 25.0991 20.0472 25.0991C20.0877 25.0991 20.675 25.6459 21.3432 26.3343Z" fill="#1D1D1B"/>
</svg>
