<svg width="159" height="24" viewBox="0 0 159 24" fill="none" xmlns="http://www.w3.org/2000/svg">
<g clip-path="url(#clip0_8758_23621)">
<path d="M23.9739 0.0131836V8.00447H15.9826V23.987H7.99129V8.00447H0V0.0131836H23.9739Z" fill="#0A9E01"/>
<path d="M47.9474 0.0131836H31.9648V8.00447H47.9474V0.0131836Z" fill="#0A9E01"/>
<path d="M47.9465 15.9957V23.987H23.9727V8.00439H31.9639V15.9957H47.9465Z" fill="#0A9E01"/>
<path d="M63.0528 5.60669H52.0781V8.77657H55.7541V18.7124H59.3768V8.77657H63.0528V5.60669Z" fill="#0A9E01"/>
<path d="M67.1814 8.67017C64.5976 8.67017 62.6797 10.4016 62.6797 13.8112C62.6797 16.8213 64.3046 18.9257 67.2614 18.9257C68.8063 18.9257 70.0583 18.5261 71.257 17.8069L69.9784 15.6492C68.9928 16.1553 68.3002 16.3418 67.4212 16.3418C66.5155 16.3418 65.8762 15.8623 65.743 14.7702H71.5234C71.55 14.6104 71.55 14.3973 71.55 14.1042C71.5767 10.4549 69.8985 8.67017 67.1814 8.67017ZM65.7963 12.6658C65.9028 11.6802 66.329 11.1741 67.1015 11.1741C68.0871 11.1741 68.4334 11.6802 68.5932 12.6658H65.7963Z" fill="#0A9E01"/>
<path d="M77.9727 16.182C77.067 16.182 76.5875 15.3828 76.5875 13.8112C76.5875 12.2662 77.0137 11.3872 77.8928 11.3872C78.612 11.3872 78.9316 11.7868 79.4111 12.6658L81.7286 10.9077C80.8762 9.52257 79.8107 8.67017 77.946 8.67017C74.8028 8.67017 73.2578 10.7479 73.2578 13.758C73.2578 17.061 74.9893 18.899 77.8661 18.899C79.5976 18.899 80.6631 18.2331 81.8085 16.5549L79.6775 14.8767C79.0382 15.8357 78.612 16.182 77.9727 16.182Z" fill="#0A9E01"/>
<path d="M89.5868 8.67005C88.4148 8.67005 87.7222 9.06962 87.1095 9.52246V5.07397L83.7266 6.43249V18.7391H87.1095V13.1185C87.1095 11.8932 87.5357 11.5469 88.255 11.5469C88.9475 11.5469 89.3737 11.8932 89.3737 13.1452V18.7391H92.7567V12.719C92.7567 10.1351 91.7179 8.67005 89.5868 8.67005Z" fill="#0A9E01"/>
<path d="M100.879 15.7556C99.3079 15.7556 98.6686 14.1573 98.6686 12.1595C98.6686 10.0818 99.3345 8.56343 100.853 8.56343C102.052 8.56343 102.504 9.33592 102.957 10.5613L106.26 9.25601C105.355 6.77871 104.076 5.39355 100.853 5.39355C97.3367 5.39355 94.8594 7.95077 94.8594 12.1595C94.8594 16.0486 96.9371 18.9255 100.826 18.9255C103.943 18.9255 105.408 17.2473 106.287 15.5425L103.224 13.9176C102.504 15.1429 102.025 15.7556 100.879 15.7556Z" fill="black"/>
<path d="M111.719 9.60248V8.88327H108.336V18.7126H111.719V13.3584C111.719 12.1597 112.225 11.7601 113.051 11.7601C113.717 11.7601 114.196 12.1064 114.622 12.5859L115.422 9.09637C115.022 8.85663 114.542 8.67017 113.823 8.67017C112.944 8.67017 112.278 9.04309 111.719 9.60248Z" fill="black"/>
<path d="M122.644 14.5038C122.644 15.7292 122.218 16.0755 121.525 16.0755C120.833 16.0755 120.406 15.7292 120.406 14.4772V8.8833H117.023V14.9034C117.023 17.4873 118.062 18.9257 120.22 18.9257C121.365 18.9257 122.085 18.5261 122.671 18.0733V18.7392H126.054V8.90994H122.671L122.644 14.5038Z" fill="black"/>
<path d="M134.333 8.67017C133.161 8.67017 132.468 9.06973 131.856 9.52257V8.85663H128.473V18.6859H131.856V13.0654C131.856 11.84 132.282 11.4938 133.001 11.4938C133.694 11.4938 134.12 11.84 134.12 13.092V18.6859H137.503V12.6658C137.503 10.1352 136.491 8.67017 134.333 8.67017Z" fill="black"/>
<path d="M144.218 16.182C143.312 16.182 142.833 15.3828 142.833 13.8112C142.833 12.2662 143.259 11.3872 144.112 11.3872C144.831 11.3872 145.15 11.7868 145.63 12.6658L147.947 10.9077C147.095 9.52257 146.029 8.67017 144.165 8.67017C141.022 8.67017 139.477 10.7479 139.477 13.758C139.477 17.061 141.208 18.899 144.085 18.899C145.816 18.899 146.882 18.2331 148.027 16.5549L145.896 14.8767C145.31 15.8357 144.857 16.182 144.218 16.182Z" fill="black"/>
<path d="M155.829 8.67005C154.657 8.67005 153.964 9.06962 153.352 9.52246V5.07397L149.969 6.43249V18.7391H153.352V13.1185C153.352 11.8932 153.778 11.5469 154.497 11.5469C155.19 11.5469 155.616 11.8932 155.616 13.1452V18.7391H158.999V12.719C159.026 10.1351 157.987 8.67005 155.829 8.67005Z" fill="black"/>
</g>
<defs>
<clipPath id="clip0_8758_23621">
<rect width="159" height="23.9739" fill="white" transform="translate(0 0.0131836)"/>
</clipPath>
</defs>
</svg>
